<svg xmlns="http://www.w3.org/2000/svg" viewBox="0 0 512 512">
  <rect width="512" height="512" rx="115" fill="#fff8e8"/>
  <rect width="512" height="512" rx="115" fill="none" stroke="#e8d49a" stroke-width="8"/>
  <!-- Scale beam -->
  <line x1="256" y1="100" x2="256" y2="72" stroke="#c9a84c" stroke-width="20" stroke-linecap="round"/>
  <!-- Center pivot circle -->
  <circle cx="256" cy="256" r="220" fill="none" stroke="#c9a84c" stroke-width="20"/>
  <!-- Left arm -->
  <line x1="110" y1="256" x2="56" y2="256" stroke="#c9a84c" stroke-width="18" stroke-linecap="round"/>
  <!-- Right arm -->
  <line x1="402" y1="256" x2="456" y2="256" stroke="#c9a84c" stroke-width="18" stroke-linecap="round"/>
  <!-- Left pan -->
  <path d="M56 256 Q90 320 128 320 Q166 320 200 256" fill="none" stroke="#c9a84c" stroke-width="18" stroke-linecap="round" stroke-linejoin="round"/>
  <!-- Right pan -->
  <path d="M312 256 Q346 320 384 320 Q422 320 456 256" fill="none" stroke="#c9a84c" stroke-width="18" stroke-linecap="round" stroke-linejoin="round"/>
  <!-- Left pan dish -->
  <ellipse cx="128" cy="330" rx="50" ry="18" fill="#f5e8c0" stroke="#c9a84c" stroke-width="14"/>
  <!-- Right pan dish -->
  <ellipse cx="384" cy="330" rx="50" ry="18" fill="#f5e8c0" stroke="#c9a84c" stroke-width="14"/>
  <!-- Center dot -->
  <circle cx="256" cy="256" r="22" fill="#c9a84c"/>
  <!-- Top hook -->
  <circle cx="256" cy="72" r="16" fill="#c9a84c"/>
  <!-- Stand base -->
  <line x1="180" y1="440" x2="332" y2="440" stroke="#c9a84c" stroke-width="20" stroke-linecap="round"/>
  <line x1="256" y1="350" x2="256" y2="440" stroke="#c9a84c" stroke-width="16" stroke-linecap="round"/>
</svg>